<?xml version="1.0" standalone="no"?>
<!DOCTYPE svg PUBLIC "-//W3C//DTD SVG 20010904//EN"
 "http://www.w3.org/TR/2001/REC-SVG-20010904/DTD/svg10.dtd">
<svg version="1.0" xmlns="http://www.w3.org/2000/svg"
 width="538.000000pt" height="538.000000pt" viewBox="0 0 538.000000 538.000000"
 preserveAspectRatio="xMidYMid meet">
<metadata>
Created by potrace 1.14, written by Peter Selinger 2001-2017
</metadata>
<g transform="translate(0.000000,538.000000) scale(0.100000,-0.100000)"
fill="#000000" stroke="none">
<path d="M2040 5199 c-761 -88 -1331 -577 -1645 -1414 -111 -296 -299 -1044
-349 -1395 -104 -716 34 -1191 462 -1590 154 -145 327 -260 542 -364 658 -316
1578 -360 2340 -111 346 113 670 288 950 511 109 88 316 295 404 404 250 313
441 698 542 1089 129 500 116 994 -37 1438 -86 249 -185 418 -339 577 -285
295 -660 474 -1391 665 -450 117 -691 166 -938 191 -120 12 -433 11 -541 -1z"/>
</g>
</svg>
